<svg width="70" height="70" viewBox="0 0 70 70" fill="none" xmlns="http://www.w3.org/2000/svg">
<path d="M59.2518 45.0454C60.571 41.8606 61.25 38.4472 61.25 35C61.25 28.0381 58.4844 21.3613 53.5616 16.4384C48.6387 11.5156 41.9619 8.75 35 8.75C28.0381 8.75 21.3613 11.5156 16.4384 16.4384C11.5156 21.3613 8.75 28.0381 8.75 35C8.75 38.4472 9.42898 41.8606 10.7482 45.0454C12.0673 48.2302 14.0009 51.124 16.4384 53.5616C18.876 55.9991 21.7698 57.9327 24.9546 59.2518C28.1394 60.571 31.5528 61.25 35 61.25C38.4472 61.25 41.8606 60.571 45.0454 59.2518C48.2302 57.9327 51.124 55.9991 53.5616 53.5616C55.9991 51.124 57.9327 48.2302 59.2518 45.0454Z" fill="#AF80FC" fill-opacity="0.88"/>
<path d="M30 39C29.015 39.0011 28.0643 38.6388 27.3299 37.9823C26.5955 37.3259 26.1291 36.4216 26.0201 35.4427C25.9111 34.4638 26.1671 33.479 26.7391 32.6771C27.3111 31.8753 28.1589 31.3126 29.12 31.097C28.8419 29.8001 29.0904 28.4459 29.8108 27.3322C30.5313 26.2185 31.6646 25.4366 32.9615 25.1585C34.2584 24.8804 35.6127 25.129 36.7263 25.8494C37.84 26.5698 38.6219 27.7031 38.9 29H39C40.2399 28.9988 41.4361 29.4583 42.3563 30.2894C43.2765 31.1205 43.8551 32.2639 43.9797 33.4975C44.1043 34.7312 43.7661 35.9672 43.0307 36.9655C42.2953 37.9638 41.2152 38.6533 40 38.9M38 36L35 33M35 33L32 36M35 33V45" stroke="white" stroke-width="2" stroke-linecap="round" stroke-linejoin="round"/>
</svg>
