<svg width="354" height="223" viewBox="0 0 354 223" fill="none" xmlns="http://www.w3.org/2000/svg">
<rect width="354" height="223" rx="8" fill="#288FB4"/>
<mask id="mask0_514_385" style="mask-type:alpha" maskUnits="userSpaceOnUse" x="0" y="0" width="354" height="223">
<rect width="354" height="223" rx="8" fill="#47494E"/>
</mask>
<g mask="url(#mask0_514_385)">
<path opacity="0.05" fill-rule="evenodd" clip-rule="evenodd" d="M345.873 158.842C327.924 150.158 304.185 135.684 304.764 109.632C305.343 74.3158 337.767 50 384.087 50C402.615 50 417.09 54.0526 428.091 58.1052L419.985 96.3158C398.562 86.4737 380.613 87.0526 373.665 88.2105C360.348 89.9474 353.979 96.8947 353.979 103.263C353.745 111.907 364.354 117.534 377.093 124.292C395.923 134.279 419.406 146.736 419.406 175.053C418.827 212.684 386.982 237 337.767 237C316.923 236.421 296.658 232.368 285.657 227.158L294.342 187.789C294.873 188.041 295.409 188.296 295.952 188.555C306.652 193.653 319.806 199.919 342.399 199.368C355.716 198.789 370.191 193.579 370.191 181.421C370.191 173.316 363.822 167.526 345.873 158.842ZM487.149 66.2105C490.044 58.1052 498.15 52.8947 506.835 52.8947H547.365L585 233.526H541.575L535.785 206.316H475.569L465.726 233.526H416.511L487.149 66.2105ZM527.679 169.842L513.783 102.105L488.886 169.842H527.679ZM206.913 233.526L245.706 52.8947H292.605L253.812 233.526H206.913ZM127.59 175.632L176.226 52.8947H225.441L149.592 233.526H100.377L63.321 89.3684C63.1465 88.7143 62.9753 88.0897 62.805 87.4925C89.1697 98.4832 112.309 116.723 122.155 146.862L124.564 159.613L127 173.5C126.972 173.004 126.941 172.511 126.908 172.019L127.59 175.632ZM120.568 138.462C110.447 101.366 72.5059 79.8877 39.7475 68.0033C29.4151 63.9844 17.1589 60.4962 6 58.1052L7.15789 52.8947H86.481C96.324 52.8947 105.588 59.8421 107.904 71.421L120.568 138.462Z" fill="white"/>
</g>
<g opacity="0.3">
<path d="M313.876 26.6H307V31.1111H313.876V26.6Z" fill="white"/>
<path d="M313.876 33.1333H307V37.6444H313.876V33.1333Z" fill="white"/>
<path d="M331 26.6H324.47V31.1111H331V26.6Z" fill="white"/>
<path d="M331 33.1333H324.47V37.6444H331V33.1333Z" fill="white"/>
<path d="M315.489 28.3374V35.893H322.84V28.3374H315.489Z" fill="white"/>
<path d="M317.53 26.0889H315.368V24.2222H307V22H317.53V26.0889Z" fill="white"/>
<path d="M322.632 26.0889H320.47V22H331V24.2222H322.632V26.0889Z" fill="white"/>
<path d="M331 42H320.47V37.9333H322.632V39.7778H331V42Z" fill="white"/>
<path d="M317.53 42H307V39.7778H315.368V37.9333H317.53V42Z" fill="white"/>
</g>
<path d="M284.324 113.699C284.418 116.195 286.434 118.305 290.066 118.305C293.617 118.305 296.219 116.078 296.219 112.598C296.219 109.34 293.758 107.301 290.957 107.301C289.094 107.301 287.887 108.145 287.523 108.672H287.418L287.816 104.547H295.047V101.992H285.285L284.523 111.402H287.301C287.664 110.617 288.566 109.703 290.16 109.703C291.824 109.703 293.125 110.898 293.125 112.738C293.125 114.684 291.613 115.809 290.148 115.809C288.578 115.809 287.441 115 287.242 113.699H284.324ZM305.137 118V102.004H302.078C300.836 102.742 299.441 103.609 298.211 104.477V107.371C299.348 106.586 300.906 105.613 301.891 105.004H301.996V118H305.137ZM314.055 102.004C311.887 105.414 309.719 108.965 307.844 112.48V115.035H315.578V118H318.555V115.035H320.512V112.48H318.555V102.004H314.055ZM310.715 112.48V112.445C312.145 109.727 313.832 106.938 315.473 104.395H315.578V112.48H310.715ZM322.27 113.91C322.375 115.891 324.133 118.293 327.695 118.293C331.715 118.293 334.012 115.07 334.012 109.809C334.012 104.277 331.621 101.711 327.789 101.711C324.754 101.711 322.059 103.703 322.059 107.242C322.059 110.652 324.426 112.469 327.016 112.469C329.254 112.469 330.508 111.309 330.883 110.172H331.035C331.105 113.219 330.109 115.809 327.766 115.809C326.277 115.809 325.375 114.859 325.234 113.91H322.27ZM330.672 107.195C330.672 108.895 329.395 110.102 327.836 110.102C326.324 110.102 325.082 109.082 325.082 107.16C325.082 105.215 326.395 104.195 327.883 104.195C329.453 104.195 330.672 105.25 330.672 107.195Z" fill="white"/>
<path d="M32.4922 106.977C32.375 105.008 30.5938 102.723 27.2422 102.723C23.4102 102.723 20.9141 105.723 20.9141 111.371C20.9141 113.973 21.5117 115.953 22.5781 117.289C23.6562 118.625 25.1914 119.305 27.0898 119.305C30.3008 119.305 32.8789 117.277 32.8789 113.727C32.8789 110.352 30.418 108.512 27.8047 108.512C25.6719 108.512 24.4531 109.754 24.0195 110.82H23.9023C23.9023 107.398 25.1094 105.207 27.1602 105.207C28.5781 105.207 29.4219 106.156 29.5273 106.977H32.4922ZM24.2773 113.855C24.2773 112.004 25.5195 110.891 27.0781 110.891C28.543 110.891 29.8672 111.934 29.8672 113.855C29.8672 115.789 28.5781 116.809 27.0898 116.809C25.5664 116.809 24.2773 115.73 24.2773 113.855ZM34.3672 103.004V105.582H42.2773V105.664L35.5742 119H38.9023L45.3828 105.641V103.004H34.3672ZM47.5508 114.699C47.6445 117.195 49.6602 119.305 53.293 119.305C56.8438 119.305 59.4453 117.078 59.4453 113.598C59.4453 110.34 56.9844 108.301 54.1836 108.301C52.3203 108.301 51.1133 109.145 50.75 109.672H50.6445L51.043 105.547H58.2734V102.992H48.5117L47.75 112.402H50.5273C50.8906 111.617 51.793 110.703 53.3867 110.703C55.0508 110.703 56.3516 111.898 56.3516 113.738C56.3516 115.684 54.8398 116.809 53.375 116.809C51.8047 116.809 50.668 116 50.4688 114.699H47.5508ZM72.8984 106.977C72.7812 105.008 71 102.723 67.6484 102.723C63.8164 102.723 61.3203 105.723 61.3203 111.371C61.3203 113.973 61.918 115.953 62.9844 117.289C64.0625 118.625 65.5977 119.305 67.4961 119.305C70.707 119.305 73.2852 117.277 73.2852 113.727C73.2852 110.352 70.8242 108.512 68.2109 108.512C66.0781 108.512 64.8594 109.754 64.4258 110.82H64.3086C64.3086 107.398 65.5156 105.207 67.5664 105.207C68.9844 105.207 69.8281 106.156 69.9336 106.977H72.8984ZM64.6836 113.855C64.6836 112.004 65.9258 110.891 67.4844 110.891C68.9492 110.891 70.2734 111.934 70.2734 113.855C70.2734 115.789 68.9844 116.809 67.4961 116.809C65.9727 116.809 64.6836 115.73 64.6836 113.855Z" fill="white"/>
<path d="M25.7598 172.086H21.9805V169.361H25.5488V168.471H21.9805V165.916H25.7598V165.002H20.9609V173H25.7598V172.086ZM30.8691 173H32.0703L29.9492 169.918L32.0234 166.842H30.8691L29.3633 169.18H29.3574L27.8516 166.842H26.6445L28.707 169.918L26.5918 173H27.7344L29.293 170.674H29.2988L30.8691 173ZM36.084 173.1C37.5312 173.1 38.5391 172.004 38.5391 170.205V169.637C38.5391 167.814 37.5137 166.748 36.125 166.748C35.2988 166.748 34.666 167.146 34.3086 167.727H34.2793V166.842H33.3125V175.045H34.3203V172.18H34.3496C34.6953 172.725 35.2988 173.1 36.084 173.1ZM35.9844 172.221C34.9355 172.221 34.3027 171.389 34.3027 170.129V169.666C34.3027 168.441 34.9297 167.615 35.9551 167.615C36.9512 167.615 37.5254 168.377 37.5254 169.672V170.129C37.5254 171.482 36.9043 172.221 35.9844 172.221ZM40.0098 165.359C40.0098 165.717 40.2969 165.998 40.6543 165.998C41.0117 165.998 41.3047 165.717 41.3047 165.359C41.3047 164.996 41.0117 164.715 40.6543 164.715C40.2969 164.715 40.0098 164.996 40.0098 165.359ZM40.1504 173H41.1582V166.842H40.1504V173ZM43.0215 173H44.0352V169.186C44.0352 168.354 44.375 167.674 45.4648 167.674C45.6523 167.674 45.8516 167.68 45.957 167.697V166.777C45.834 166.76 45.7051 166.748 45.5762 166.748C44.7031 166.748 44.2402 167.229 44.0586 167.598H44.0293V166.842H43.0215V173ZM49.4141 173.1C50.7734 173.1 51.5879 172.344 51.8223 171.324H50.8203C50.6211 171.898 50.1523 172.256 49.4375 172.256C48.4355 172.256 47.8379 171.453 47.8379 170.281V170.17H51.9043V169.596C51.9043 167.902 50.9785 166.742 49.3672 166.742C47.75 166.742 46.8301 167.902 46.8301 169.525V170.217C46.8301 171.969 47.8086 173.1 49.4141 173.1ZM47.8379 169.355V169.338C47.8379 168.365 48.4355 167.586 49.373 167.586C50.293 167.586 50.8965 168.359 50.8965 169.338V169.355H47.8379ZM58.0449 166.748C56.4922 166.748 55.584 167.967 55.584 169.643V170.199C55.584 171.916 56.4395 173.094 58.0449 173.094C58.8711 173.094 59.5156 172.707 59.8613 172.074H59.8848V173H60.8516V164.58H59.8438V167.697H59.8145C59.5039 167.152 58.8594 166.748 58.0449 166.748ZM58.1855 167.627C59.2227 167.627 59.8613 168.436 59.8613 169.678V170.17C59.8613 171.477 59.2344 172.215 58.2031 172.215C57.2715 172.215 56.5977 171.535 56.5977 170.164V169.678C56.5977 168.307 57.2715 167.627 58.1855 167.627ZM66.1016 172.232H66.1309V173H67.0977V168.752C67.0977 167.457 66.1426 166.742 64.8301 166.742C63.3418 166.742 62.6094 167.527 62.5449 168.605H63.4941C63.5527 167.99 64.0039 167.586 64.7949 167.586C65.627 167.586 66.0957 168.031 66.0957 168.84V169.467H64.4727C63.0605 169.473 62.3105 170.152 62.3105 171.23C62.3105 172.361 63.1309 173.1 64.3203 173.1C65.2285 173.1 65.791 172.73 66.1016 172.232ZM64.5898 172.262C63.9453 172.262 63.3418 171.922 63.3418 171.195C63.3418 170.639 63.7051 170.24 64.5488 170.24H66.0957V170.955C66.0957 171.723 65.4512 172.262 64.5898 172.262ZM69.2129 166.842H68.3809V167.686H69.207V171.277C69.207 172.49 69.5059 173.053 70.9648 173.053C71.1758 173.053 71.3867 173.029 71.4746 173.012V172.203C71.3926 172.215 71.3164 172.215 71.2168 172.215C70.4609 172.215 70.2148 172.027 70.2148 171.289V167.686H71.4336V166.842H70.2148V165.307H69.2129V166.842ZM75.1953 173.1C76.5547 173.1 77.3691 172.344 77.6035 171.324H76.6016C76.4023 171.898 75.9336 172.256 75.2188 172.256C74.2168 172.256 73.6191 171.453 73.6191 170.281V170.17H77.6855V169.596C77.6855 167.902 76.7598 166.742 75.1484 166.742C73.5312 166.742 72.6113 167.902 72.6113 169.525V170.217C72.6113 171.969 73.5898 173.1 75.1953 173.1ZM73.6191 169.355V169.338C73.6191 168.365 74.2168 167.586 75.1543 167.586C76.0742 167.586 76.6777 168.359 76.6777 169.338V169.355H73.6191Z" fill="white"/>
<path d="M20.6631 194.707C20.6631 197.448 21.8252 199.198 23.9512 199.198C26.0908 199.198 27.2324 197.435 27.2324 194.707V193.982C27.2324 191.228 26.084 189.471 23.958 189.471C21.832 189.471 20.6631 191.234 20.6631 193.982V194.707ZM21.8457 193.989C21.8457 191.781 22.6455 190.517 23.9512 190.517C25.25 190.517 26.0498 191.781 26.0498 193.989V194.693C26.0498 196.901 25.25 198.152 23.9512 198.152C22.6455 198.152 21.8457 196.901 21.8457 194.693V193.989ZM34.8477 191.836C34.752 190.708 33.7471 189.491 32.0244 189.491C30.001 189.491 28.5244 191.18 28.5244 194.693C28.5244 196.225 28.8662 197.353 29.4541 198.091C30.0488 198.829 30.8896 199.191 31.8877 199.191C33.6719 199.191 35.1006 198.009 35.1006 195.992C35.1006 194.017 33.5693 192.93 32.0449 192.93C30.8486 192.93 29.9805 193.62 29.707 194.311H29.6865C29.7617 191.631 30.7803 190.517 31.9766 190.517C33.0635 190.517 33.6035 191.303 33.6514 191.836H34.8477ZM29.8574 196.067C29.8574 194.693 30.8145 193.955 31.8945 193.955C32.9062 193.955 33.9248 194.632 33.9248 196.061C33.9248 197.503 32.9336 198.159 31.9082 198.159C30.8418 198.159 29.8574 197.448 29.8574 196.067ZM39.6055 201.112L42.9688 189.177H41.8818L38.5186 201.112H39.6055ZM47.7949 192.246V192.205C47.7949 191.296 48.4443 190.503 49.5449 190.503C50.5225 190.503 51.2539 191.118 51.2539 192.109C51.2539 192.957 50.707 193.606 50.1807 194.208L46.6943 198.248V199H52.6416V197.954H48.3623V197.934L50.8779 194.98C51.7871 193.921 52.4639 193.155 52.4639 192.027C52.4639 190.558 51.3223 189.471 49.5791 189.471C47.6855 189.471 46.6328 190.77 46.6328 192.205V192.246H47.7949ZM55.3691 192.246V192.205C55.3691 191.296 56.0186 190.503 57.1191 190.503C58.0967 190.503 58.8281 191.118 58.8281 192.109C58.8281 192.957 58.2812 193.606 57.7549 194.208L54.2686 198.248V199H60.2158V197.954H55.9365V197.934L58.4521 194.98C59.3613 193.921 60.0381 193.155 60.0381 192.027C60.0381 190.558 58.8965 189.471 57.1533 189.471C55.2598 189.471 54.207 190.77 54.207 192.205V192.246H55.3691Z" fill="white"/>
<path d="M205.387 116.973L205.141 114.066L207.531 115.742L208.48 114.102L205.855 112.883L208.48 111.652L207.52 109.988L205.152 111.664L205.398 108.77H203.512L203.746 111.676L201.367 110L200.418 111.652L203.031 112.883L200.43 114.113L201.367 115.742L203.781 114.066L203.512 116.973H205.387ZM216.285 116.973L216.039 114.066L218.43 115.742L219.379 114.102L216.754 112.883L219.379 111.652L218.418 109.988L216.051 111.664L216.297 108.77H214.41L214.645 111.676L212.266 110L211.316 111.652L213.93 112.883L211.328 114.113L212.266 115.742L214.68 114.066L214.41 116.973H216.285ZM227.184 116.973L226.938 114.066L229.328 115.742L230.277 114.102L227.652 112.883L230.277 111.652L229.316 109.988L226.949 111.664L227.195 108.77H225.309L225.543 111.676L223.164 110L222.215 111.652L224.828 112.883L222.227 114.113L223.164 115.742L225.578 114.066L225.309 116.973H227.184ZM238.082 116.973L237.836 114.066L240.227 115.742L241.176 114.102L238.551 112.883L241.176 111.652L240.215 109.988L237.848 111.664L238.094 108.77H236.207L236.441 111.676L234.062 110L233.113 111.652L235.727 112.883L233.125 114.113L234.062 115.742L236.477 114.066L236.207 116.973H238.082Z" fill="white"/>
<path d="M121.387 116.973L121.141 114.066L123.531 115.742L124.48 114.102L121.855 112.883L124.48 111.652L123.52 109.988L121.152 111.664L121.398 108.77H119.512L119.746 111.676L117.367 110L116.418 111.652L119.031 112.883L116.43 114.113L117.367 115.742L119.781 114.066L119.512 116.973H121.387ZM132.285 116.973L132.039 114.066L134.43 115.742L135.379 114.102L132.754 112.883L135.379 111.652L134.418 109.988L132.051 111.664L132.297 108.77H130.41L130.645 111.676L128.266 110L127.316 111.652L129.93 112.883L127.328 114.113L128.266 115.742L130.68 114.066L130.41 116.973H132.285ZM143.184 116.973L142.938 114.066L145.328 115.742L146.277 114.102L143.652 112.883L146.277 111.652L145.316 109.988L142.949 111.664L143.195 108.77H141.309L141.543 111.676L139.164 110L138.215 111.652L140.828 112.883L138.227 114.113L139.164 115.742L141.578 114.066L141.309 116.973H143.184ZM154.082 116.973L153.836 114.066L156.227 115.742L157.176 114.102L154.551 112.883L157.176 111.652L156.215 109.988L153.848 111.664L154.094 108.77H152.207L152.441 111.676L150.062 110L149.113 111.652L151.727 112.883L149.125 114.113L150.062 115.742L152.477 114.066L152.207 116.973H154.082Z" fill="white"/>
<path d="M51.1703 33.8266C51.1331 35.4985 52.6563 36.4272 53.808 36.9845C54.9597 37.5418 55.3684 37.9133 55.3684 38.4334C55.3684 39.2136 54.4396 39.548 53.5851 39.5851C52.0619 39.6223 51.2074 39.1765 50.5015 38.8421L49.9443 41.3684C50.6502 41.7028 51.9505 41.9628 53.2879 42C56.4458 42 58.4892 40.4396 58.5263 38.0248C58.5263 34.9783 54.291 34.7926 54.3282 33.418C54.3282 33.0093 54.7368 32.5635 55.5913 32.452C56.0372 32.3777 57.1889 32.3406 58.5635 32.9721L59.0836 30.5201C58.3777 30.2601 57.4489 30 56.2601 30C53.2879 30 51.2074 31.5604 51.1703 33.8266ZM64.1362 30.1858C63.579 30.1858 63.0588 30.5201 62.8731 31.0402L58.3406 41.7771H61.4985L62.13 40.031H65.9938L66.3653 41.7771H69.1517L66.7368 30.1858H64.1362ZM64.582 33.3437L65.4737 37.6904H62.9845L64.582 33.3437ZM47.3808 30.1858L44.8916 41.7771H47.9009L50.3901 30.1858H47.3808ZM42.9226 30.1858L39.8019 38.0619L38.5387 31.3746C38.3901 30.6316 37.7957 30.1858 37.1641 30.1858H32.0743L32 30.5201C33.0402 30.743 34.2291 31.1146 34.9721 31.5232C35.418 31.7461 35.5294 31.969 35.678 32.5263L38.0557 41.7771H41.2136L46.0805 30.1858H42.9226Z" fill="white"/>
<path opacity="0.7" d="M242 184C242 173.507 250.507 165 261 165H315C325.493 165 334 173.507 334 184C334 194.493 325.493 203 315 203H261C250.507 203 242 194.493 242 184Z" fill="white"/>
<path d="M276.08 183.375C276.08 181.178 277.032 179.94 278.739 179.94C280.145 179.94 281.112 180.855 281.148 182.188H282.408V182.167C282.408 180.204 280.863 178.79 278.731 178.79C276.256 178.79 274.806 180.504 274.806 183.375V184.686C274.806 187.528 276.256 189.212 278.731 189.212C280.848 189.212 282.408 187.857 282.408 186.012V185.982H281.148C281.112 187.22 280.145 188.062 278.739 188.062C277.032 188.062 276.08 186.847 276.08 184.686V183.375ZM288.18 189L291.783 179.002H290.333L287.557 187.352H287.513L284.723 179.002H283.265L286.861 189H288.18ZM297.218 189L300.821 179.002H299.371L296.595 187.352H296.551L293.761 179.002H292.303L295.899 189H297.218Z" fill="#3C4349"/>
<g opacity="0.4">
<path fill-rule="evenodd" clip-rule="evenodd" d="M213.732 182H213.969C215.027 182 215.872 182.853 215.872 183.92V190.053C215.872 191.12 215 191.973 213.969 191.973H204.667C203.61 191.973 202.764 191.093 202.764 190.053V183.92C202.764 182.853 203.636 182 204.667 182H204.905V180.72C204.905 178.267 206.887 176.267 209.318 176.267C211.75 176.267 213.732 178.267 213.732 180.72V182ZM209.318 177.093C207.31 177.093 205.697 178.747 205.697 180.747V182.027H212.939V180.747C212.939 178.72 211.327 177.093 209.318 177.093ZM208.34 186.667C208.34 186.133 208.763 185.68 209.318 185.68C209.873 185.68 210.296 186.107 210.322 186.667C210.322 187.093 210.058 187.467 209.688 187.6V189.467H208.975V187.6C208.605 187.44 208.34 187.093 208.34 186.667Z" fill="white"/>
</g>
</svg>
