<svg width="354" height="223" viewBox="0 0 354 223" fill="none" xmlns="http://www.w3.org/2000/svg">
<rect width="354" height="223" rx="8" fill="#FF735C"/>
<mask id="mask0_514_384" style="mask-type:alpha" maskUnits="userSpaceOnUse" x="0" y="0" width="354" height="223">
<rect width="354" height="223" rx="8" fill="#47494E"/>
</mask>
<g mask="url(#mask0_514_384)">
<g opacity="0.4">
<circle opacity="0.1" cx="147" cy="226" r="219" fill="white"/>
<circle opacity="0.4" cx="409" cy="266" r="218.5" stroke="white"/>
</g>
</g>
<g opacity="0.3">
<path d="M313.876 26.6H307V31.1111H313.876V26.6Z" fill="white"/>
<path d="M313.876 33.1333H307V37.6444H313.876V33.1333Z" fill="white"/>
<path d="M331 26.6H324.47V31.1111H331V26.6Z" fill="white"/>
<path d="M331 33.1333H324.47V37.6444H331V33.1333Z" fill="white"/>
<path d="M315.489 28.3374V35.893H322.84V28.3374H315.489Z" fill="white"/>
<path d="M317.53 26.0889H315.368V24.2222H307V22H317.53V26.0889Z" fill="white"/>
<path d="M322.632 26.0889H320.47V22H331V24.2222H322.632V26.0889Z" fill="white"/>
<path d="M331 42H320.47V37.9333H322.632V39.7778H331V42Z" fill="white"/>
<path d="M317.53 42H307V39.7778H315.368V37.9333H317.53V42Z" fill="white"/>
</g>
<path d="M283.102 106.773V106.598C283.102 105.32 284.039 104.23 285.527 104.23C286.887 104.23 287.895 105.109 287.895 106.469C287.895 107.676 287.156 108.625 286.113 109.727L280.301 116.031V118H291.316V115.422H284.613V115.328L288.223 111.273C290.062 109.305 291.035 108.039 291.035 106.176C291.035 103.562 288.891 101.699 285.668 101.699C282.258 101.699 280.102 103.926 280.102 106.621V106.773H283.102ZM298.875 102.004C296.707 105.414 294.539 108.965 292.664 112.48V115.035H300.398V118H303.375V115.035H305.332V112.48H303.375V102.004H298.875ZM295.535 112.48V112.445C296.965 109.727 298.652 106.938 300.293 104.395H300.398V112.48H295.535ZM310.055 106.773V106.598C310.055 105.32 310.992 104.23 312.48 104.23C313.84 104.23 314.848 105.109 314.848 106.469C314.848 107.676 314.109 108.625 313.066 109.727L307.254 116.031V118H318.27V115.422H311.566V115.328L315.176 111.273C317.016 109.305 317.988 108.039 317.988 106.176C317.988 103.562 315.844 101.699 312.621 101.699C309.211 101.699 307.055 103.926 307.055 106.621V106.773H310.055ZM325.828 102.004C323.66 105.414 321.492 108.965 319.617 112.48V115.035H327.352V118H330.328V115.035H332.285V112.48H330.328V102.004H325.828ZM322.488 112.48V112.445C323.918 109.727 325.605 106.938 327.246 104.395H327.352V112.48H322.488Z" fill="white"/>
<path d="M24.1016 107.773V107.598C24.1016 106.32 25.0391 105.23 26.5273 105.23C27.8867 105.23 28.8945 106.109 28.8945 107.469C28.8945 108.676 28.1562 109.625 27.1133 110.727L21.3008 117.031V119H32.3164V116.422H25.6133V116.328L29.2227 112.273C31.0625 110.305 32.0352 109.039 32.0352 107.176C32.0352 104.562 29.8906 102.699 26.668 102.699C23.2578 102.699 21.1016 104.926 21.1016 107.621V107.773H24.1016ZM39.875 103.004C37.707 106.414 35.5391 109.965 33.6641 113.48V116.035H41.3984V119H44.375V116.035H46.332V113.48H44.375V103.004H39.875ZM36.5352 113.48V113.445C37.9648 110.727 39.6523 107.938 41.293 105.395H41.3984V113.48H36.5352ZM51.0547 107.773V107.598C51.0547 106.32 51.9922 105.23 53.4805 105.23C54.8398 105.23 55.8477 106.109 55.8477 107.469C55.8477 108.676 55.1094 109.625 54.0664 110.727L48.2539 117.031V119H59.2695V116.422H52.5664V116.328L56.1758 112.273C58.0156 110.305 58.9883 109.039 58.9883 107.176C58.9883 104.562 56.8438 102.699 53.6211 102.699C50.2109 102.699 48.0547 104.926 48.0547 107.621V107.773H51.0547ZM66.8281 103.004C64.6602 106.414 62.4922 109.965 60.6172 113.48V116.035H68.3516V119H71.3281V116.035H73.2852V113.48H71.3281V103.004H66.8281ZM63.4883 113.48V113.445C64.918 110.727 66.6055 107.938 68.2461 105.395H68.3516V113.48H63.4883Z" fill="white"/>
<path d="M25.7598 172.086H21.9805V169.361H25.5488V168.471H21.9805V165.916H25.7598V165.002H20.9609V173H25.7598V172.086ZM30.8691 173H32.0703L29.9492 169.918L32.0234 166.842H30.8691L29.3633 169.18H29.3574L27.8516 166.842H26.6445L28.707 169.918L26.5918 173H27.7344L29.293 170.674H29.2988L30.8691 173ZM36.084 173.1C37.5312 173.1 38.5391 172.004 38.5391 170.205V169.637C38.5391 167.814 37.5137 166.748 36.125 166.748C35.2988 166.748 34.666 167.146 34.3086 167.727H34.2793V166.842H33.3125V175.045H34.3203V172.18H34.3496C34.6953 172.725 35.2988 173.1 36.084 173.1ZM35.9844 172.221C34.9355 172.221 34.3027 171.389 34.3027 170.129V169.666C34.3027 168.441 34.9297 167.615 35.9551 167.615C36.9512 167.615 37.5254 168.377 37.5254 169.672V170.129C37.5254 171.482 36.9043 172.221 35.9844 172.221ZM40.0098 165.359C40.0098 165.717 40.2969 165.998 40.6543 165.998C41.0117 165.998 41.3047 165.717 41.3047 165.359C41.3047 164.996 41.0117 164.715 40.6543 164.715C40.2969 164.715 40.0098 164.996 40.0098 165.359ZM40.1504 173H41.1582V166.842H40.1504V173ZM43.0215 173H44.0352V169.186C44.0352 168.354 44.375 167.674 45.4648 167.674C45.6523 167.674 45.8516 167.68 45.957 167.697V166.777C45.834 166.76 45.7051 166.748 45.5762 166.748C44.7031 166.748 44.2402 167.229 44.0586 167.598H44.0293V166.842H43.0215V173ZM49.4141 173.1C50.7734 173.1 51.5879 172.344 51.8223 171.324H50.8203C50.6211 171.898 50.1523 172.256 49.4375 172.256C48.4355 172.256 47.8379 171.453 47.8379 170.281V170.17H51.9043V169.596C51.9043 167.902 50.9785 166.742 49.3672 166.742C47.75 166.742 46.8301 167.902 46.8301 169.525V170.217C46.8301 171.969 47.8086 173.1 49.4141 173.1ZM47.8379 169.355V169.338C47.8379 168.365 48.4355 167.586 49.373 167.586C50.293 167.586 50.8965 168.359 50.8965 169.338V169.355H47.8379ZM58.0449 166.748C56.4922 166.748 55.584 167.967 55.584 169.643V170.199C55.584 171.916 56.4395 173.094 58.0449 173.094C58.8711 173.094 59.5156 172.707 59.8613 172.074H59.8848V173H60.8516V164.58H59.8438V167.697H59.8145C59.5039 167.152 58.8594 166.748 58.0449 166.748ZM58.1855 167.627C59.2227 167.627 59.8613 168.436 59.8613 169.678V170.17C59.8613 171.477 59.2344 172.215 58.2031 172.215C57.2715 172.215 56.5977 171.535 56.5977 170.164V169.678C56.5977 168.307 57.2715 167.627 58.1855 167.627ZM66.1016 172.232H66.1309V173H67.0977V168.752C67.0977 167.457 66.1426 166.742 64.8301 166.742C63.3418 166.742 62.6094 167.527 62.5449 168.605H63.4941C63.5527 167.99 64.0039 167.586 64.7949 167.586C65.627 167.586 66.0957 168.031 66.0957 168.84V169.467H64.4727C63.0605 169.473 62.3105 170.152 62.3105 171.23C62.3105 172.361 63.1309 173.1 64.3203 173.1C65.2285 173.1 65.791 172.73 66.1016 172.232ZM64.5898 172.262C63.9453 172.262 63.3418 171.922 63.3418 171.195C63.3418 170.639 63.7051 170.24 64.5488 170.24H66.0957V170.955C66.0957 171.723 65.4512 172.262 64.5898 172.262ZM69.2129 166.842H68.3809V167.686H69.207V171.277C69.207 172.49 69.5059 173.053 70.9648 173.053C71.1758 173.053 71.3867 173.029 71.4746 173.012V172.203C71.3926 172.215 71.3164 172.215 71.2168 172.215C70.4609 172.215 70.2148 172.027 70.2148 171.289V167.686H71.4336V166.842H70.2148V165.307H69.2129V166.842ZM75.1953 173.1C76.5547 173.1 77.3691 172.344 77.6035 171.324H76.6016C76.4023 171.898 75.9336 172.256 75.2188 172.256C74.2168 172.256 73.6191 171.453 73.6191 170.281V170.17H77.6855V169.596C77.6855 167.902 76.7598 166.742 75.1484 166.742C73.5312 166.742 72.6113 167.902 72.6113 169.525V170.217C72.6113 171.969 73.5898 173.1 75.1953 173.1ZM73.6191 169.355V169.338C73.6191 168.365 74.2168 167.586 75.1543 167.586C76.0742 167.586 76.6777 168.359 76.6777 169.338V169.355H73.6191Z" fill="white"/>
<path d="M20.6631 194.707C20.6631 197.448 21.8252 199.198 23.9512 199.198C26.0908 199.198 27.2324 197.435 27.2324 194.707V193.982C27.2324 191.228 26.084 189.471 23.958 189.471C21.832 189.471 20.6631 191.234 20.6631 193.982V194.707ZM21.8457 193.989C21.8457 191.781 22.6455 190.517 23.9512 190.517C25.25 190.517 26.0498 191.781 26.0498 193.989V194.693C26.0498 196.901 25.25 198.152 23.9512 198.152C22.6455 198.152 21.8457 196.901 21.8457 194.693V193.989ZM30.6709 194.707H31.6211C32.9199 194.707 33.6855 195.384 33.6992 196.402C33.7129 197.428 32.9609 198.173 31.6279 198.173C30.377 198.173 29.7822 197.462 29.6592 196.587H28.5381C28.5928 198.016 29.584 199.205 31.5869 199.205C33.5283 199.205 34.9434 198.009 34.9092 196.409C34.875 194.892 33.665 194.215 32.8721 194.146V194.126C33.5967 194.01 34.6016 193.176 34.5674 191.85C34.5264 190.51 33.3779 189.471 31.6279 189.471C29.7412 189.471 28.7979 190.776 28.7705 192H29.9121C29.9736 191.303 30.4521 190.496 31.6279 190.496C32.6807 190.496 33.3506 191.132 33.3574 192.048C33.3643 192.998 32.626 193.668 31.5664 193.668H30.6709V194.707ZM39.5508 201.112L42.9141 189.177H41.8271L38.4639 201.112H39.5508ZM47.7402 192.246V192.205C47.7402 191.296 48.3896 190.503 49.4902 190.503C50.4678 190.503 51.1992 191.118 51.1992 192.109C51.1992 192.957 50.6523 193.606 50.126 194.208L46.6396 198.248V199H52.5869V197.954H48.3076V197.934L50.8232 194.98C51.7324 193.921 52.4092 193.155 52.4092 192.027C52.4092 190.558 51.2676 189.471 49.5244 189.471C47.6309 189.471 46.5781 190.77 46.5781 192.205V192.246H47.7402ZM56.1416 194.707H57.0918C58.3906 194.707 59.1562 195.384 59.1699 196.402C59.1836 197.428 58.4316 198.173 57.0986 198.173C55.8477 198.173 55.2529 197.462 55.1299 196.587H54.0088C54.0635 198.016 55.0547 199.205 57.0576 199.205C58.999 199.205 60.4141 198.009 60.3799 196.409C60.3457 194.892 59.1357 194.215 58.3428 194.146V194.126C59.0674 194.01 60.0723 193.176 60.0381 191.85C59.9971 190.51 58.8486 189.471 57.0986 189.471C55.2119 189.471 54.2686 190.776 54.2412 192H55.3828C55.4443 191.303 55.9229 190.496 57.0986 190.496C58.1514 190.496 58.8213 191.132 58.8281 192.048C58.835 192.998 58.0967 193.668 57.0371 193.668H56.1416V194.707Z" fill="white"/>
<path d="M202.387 116.973L202.141 114.066L204.531 115.742L205.48 114.102L202.855 112.883L205.48 111.652L204.52 109.988L202.152 111.664L202.398 108.77H200.512L200.746 111.676L198.367 110L197.418 111.652L200.031 112.883L197.43 114.113L198.367 115.742L200.781 114.066L200.512 116.973H202.387ZM213.285 116.973L213.039 114.066L215.43 115.742L216.379 114.102L213.754 112.883L216.379 111.652L215.418 109.988L213.051 111.664L213.297 108.77H211.41L211.645 111.676L209.266 110L208.316 111.652L210.93 112.883L208.328 114.113L209.266 115.742L211.68 114.066L211.41 116.973H213.285ZM224.184 116.973L223.938 114.066L226.328 115.742L227.277 114.102L224.652 112.883L227.277 111.652L226.316 109.988L223.949 111.664L224.195 108.77H222.309L222.543 111.676L220.164 110L219.215 111.652L221.828 112.883L219.227 114.113L220.164 115.742L222.578 114.066L222.309 116.973H224.184ZM235.082 116.973L234.836 114.066L237.227 115.742L238.176 114.102L235.551 112.883L238.176 111.652L237.215 109.988L234.848 111.664L235.094 108.77H233.207L233.441 111.676L231.062 110L230.113 111.652L232.727 112.883L230.125 114.113L231.062 115.742L233.477 114.066L233.207 116.973H235.082Z" fill="white"/>
<path d="M119.387 116.973L119.141 114.066L121.531 115.742L122.48 114.102L119.855 112.883L122.48 111.652L121.52 109.988L119.152 111.664L119.398 108.77H117.512L117.746 111.676L115.367 110L114.418 111.652L117.031 112.883L114.43 114.113L115.367 115.742L117.781 114.066L117.512 116.973H119.387ZM130.285 116.973L130.039 114.066L132.43 115.742L133.379 114.102L130.754 112.883L133.379 111.652L132.418 109.988L130.051 111.664L130.297 108.77H128.41L128.645 111.676L126.266 110L125.316 111.652L127.93 112.883L125.328 114.113L126.266 115.742L128.68 114.066L128.41 116.973H130.285ZM141.184 116.973L140.938 114.066L143.328 115.742L144.277 114.102L141.652 112.883L144.277 111.652L143.316 109.988L140.949 111.664L141.195 108.77H139.309L139.543 111.676L137.164 110L136.215 111.652L138.828 112.883L136.227 114.113L137.164 115.742L139.578 114.066L139.309 116.973H141.184ZM152.082 116.973L151.836 114.066L154.227 115.742L155.176 114.102L152.551 112.883L155.176 111.652L154.215 109.988L151.848 111.664L152.094 108.77H150.207L150.441 111.676L148.062 110L147.113 111.652L149.727 112.883L147.125 114.113L148.062 115.742L150.477 114.066L150.207 116.973H152.082Z" fill="white"/>
<path d="M83.1371 38.0608V33.6777C83.1371 32.0238 82.0823 30.9105 80.3845 30.8959C79.901 30.8646 79.418 30.9636 78.9858 31.1826C78.5535 31.4015 78.1879 31.7324 77.9271 32.1407C77.6894 31.7445 77.3492 31.4198 76.9424 31.2007C76.5357 30.9816 76.0773 30.8763 75.6157 30.8959C75.2137 30.8765 74.8137 30.9622 74.455 31.1446C74.0963 31.3271 73.7913 31.5999 73.5703 31.9362V31.0595H72.0479V38.0608H73.5849V34.1832C73.5849 32.9676 74.2569 32.3248 75.2972 32.3248C76.3375 32.3248 76.8196 32.9823 76.8196 34.1686V38.0608H78.3479V34.1832C78.3479 32.9676 79.0492 32.3248 80.0602 32.3248C81.0712 32.3248 81.5972 32.9823 81.5972 34.1686V38.0608H83.1371ZM105.88 31.0654H103.393V28.9439H101.856V31.0654H100.436V32.4563H101.856V35.6443C101.856 37.2689 102.484 38.2362 104.284 38.2362C104.957 38.2383 105.616 38.051 106.187 37.6956L105.748 36.3923C105.34 36.6356 104.876 36.7713 104.401 36.7868C103.641 36.7868 103.39 36.3193 103.39 35.618V32.4563H105.877L105.88 31.0654ZM118.862 30.89C118.491 30.8792 118.124 30.9688 117.8 31.1493C117.475 31.3298 117.205 31.5946 117.019 31.9157V31.0654H115.511V38.0608H117.033V34.1394C117.033 32.9706 117.53 32.3394 118.526 32.3394C118.852 32.3347 119.176 32.3943 119.479 32.5147L119.947 31.08C119.599 30.9555 119.232 30.8913 118.862 30.89ZM99.2349 31.6206C98.3729 31.1085 97.382 30.8549 96.38 30.89C94.6092 30.89 93.4579 31.7404 93.4579 33.1284C93.4579 34.2709 94.3053 34.9722 95.8716 35.1913L96.5875 35.2936C97.4203 35.4105 97.8177 35.6297 97.8177 36.0241C97.8177 36.5647 97.2625 36.8745 96.2222 36.8745C95.383 36.9011 94.5593 36.6437 93.8845 36.1439L93.192 37.3274C94.0786 37.9473 95.1409 38.2658 96.2222 38.2362C98.2414 38.2362 99.4131 37.2836 99.4131 35.954C99.4131 34.7238 98.4897 34.081 96.9703 33.8618L96.2544 33.7595C95.5969 33.6719 95.068 33.5404 95.068 33.0728C95.068 32.5615 95.5647 32.2547 96.4005 32.2547C97.1662 32.266 97.9164 32.4721 98.5803 32.8537L99.2349 31.6206ZM140.004 30.89C139.633 30.8792 139.265 30.9688 138.941 31.1493C138.616 31.3298 138.346 31.5946 138.16 31.9157V31.0654H136.652V38.0608H138.174V34.1394C138.174 32.9706 138.671 32.3394 139.668 32.3394C139.994 32.3347 140.317 32.3943 140.62 32.5147L141.088 31.08C140.74 30.9555 140.373 30.8913 140.004 30.89ZM120.399 34.5631C120.399 36.6845 121.878 38.2362 124.131 38.2362C125.045 38.2814 125.942 37.9833 126.647 37.4004L125.916 36.1702C125.39 36.571 124.749 36.7913 124.087 36.7985C122.872 36.7985 121.98 35.9043 121.98 34.5602C121.98 33.216 122.874 32.3365 124.087 32.3219C124.749 32.329 125.39 32.5493 125.916 32.9501L126.647 31.7199C125.942 31.1371 125.045 30.839 124.131 30.8842C121.878 30.8842 120.399 32.4358 120.399 34.5573V34.5631ZM134.653 34.5631V31.0566H133.131V31.9069C132.871 31.572 132.535 31.3041 132.151 31.1257C131.767 30.9472 131.345 30.8634 130.922 30.8813C128.961 30.8813 127.415 32.4183 127.415 34.5543C127.415 36.6904 128.952 38.2274 130.922 38.2274C131.345 38.2453 131.767 38.1615 132.151 37.983C132.535 37.8046 132.871 37.5367 133.131 37.2017V38.0491H134.653V34.5631ZM128.99 34.5631C128.99 33.3329 129.794 32.3248 131.112 32.3248C132.371 32.3248 133.219 33.292 133.219 34.5631C133.219 35.8342 132.371 36.8014 131.112 36.8014C129.794 36.8014 128.99 35.7904 128.99 34.5631ZM110.622 30.89C108.577 30.89 107.139 32.3832 107.139 34.5631C107.139 36.7868 108.632 38.2362 110.724 38.2362C111.769 38.2728 112.791 37.9232 113.594 37.2543L112.849 36.1264C112.268 36.5914 111.548 36.8486 110.803 36.8569C109.822 36.8569 108.93 36.404 108.711 35.1446H113.907C113.921 34.9547 113.936 34.7647 113.936 34.5602C113.936 32.3803 112.574 30.8871 110.613 30.8871L110.622 30.89ZM110.593 32.2517C111.575 32.2517 112.203 32.8654 112.364 33.9495H108.737C108.898 32.9384 109.512 32.2517 110.596 32.2517H110.593ZM148.77 34.5631V28.2543H147.248V31.9128C146.988 31.5778 146.652 31.3099 146.268 31.1315C145.883 30.9531 145.462 30.8693 145.038 30.8871C143.078 30.8871 141.532 32.4241 141.532 34.5602C141.532 36.6962 143.069 38.2332 145.038 38.2332C145.462 38.2511 145.883 38.1673 146.268 37.9889C146.652 37.8104 146.988 37.5425 147.248 37.2076V38.055H148.77V34.5631ZM150.55 37.4151C150.61 37.4148 150.669 37.4267 150.725 37.4501C150.778 37.4729 150.827 37.5056 150.868 37.5465C150.909 37.5867 150.942 37.6343 150.964 37.6868C150.988 37.7413 151 37.7999 151 37.8592C151 37.9185 150.988 37.9772 150.964 38.0316C150.942 38.0841 150.909 38.1317 150.868 38.1719C150.827 38.2126 150.778 38.2453 150.725 38.2683C150.669 38.2919 150.61 38.3038 150.55 38.3034C150.46 38.3045 150.373 38.2793 150.298 38.2309C150.223 38.1826 150.164 38.1133 150.129 38.0316C150.105 37.9771 150.093 37.9185 150.093 37.8592C150.093 37.7999 150.105 37.7413 150.129 37.6868C150.174 37.5795 150.26 37.4945 150.368 37.4501C150.428 37.4255 150.491 37.4135 150.555 37.4151H150.55ZM150.55 38.204C150.596 38.2047 150.641 38.1958 150.684 38.1777C150.724 38.1603 150.761 38.1355 150.792 38.1047C150.857 38.0395 150.893 37.9512 150.893 37.8592C150.893 37.7672 150.857 37.6789 150.792 37.6138C150.761 37.5827 150.724 37.5579 150.684 37.5407C150.641 37.5228 150.596 37.5138 150.55 37.5144C150.502 37.5138 150.456 37.5227 150.412 37.5407C150.36 37.563 150.314 37.5976 150.279 37.6416C150.243 37.6857 150.218 37.7377 150.208 37.7933C150.197 37.8489 150.199 37.9063 150.216 37.9606C150.232 38.0149 150.261 38.0643 150.301 38.1047C150.333 38.1359 150.371 38.1607 150.412 38.1777C150.457 38.1966 150.506 38.2055 150.555 38.204H150.55ZM150.576 37.6488C150.62 37.6458 150.663 37.6582 150.699 37.6839C150.713 37.6954 150.724 37.7101 150.732 37.7268C150.74 37.7436 150.743 37.7619 150.742 37.7803C150.743 37.7961 150.74 37.8119 150.734 37.8265C150.728 37.8411 150.719 37.8542 150.707 37.8651C150.681 37.8889 150.647 37.9033 150.611 37.906L150.745 38.0608H150.64L150.514 37.906H150.474V38.0608H150.386V37.6517L150.576 37.6488ZM150.474 37.7248V37.8358H150.576C150.594 37.8411 150.613 37.8411 150.631 37.8358C150.638 37.8313 150.643 37.8252 150.647 37.818C150.65 37.8109 150.652 37.8029 150.652 37.7949C150.652 37.7869 150.65 37.779 150.647 37.7718C150.643 37.7646 150.638 37.7585 150.631 37.754C150.613 37.7487 150.594 37.7487 150.576 37.754L150.474 37.7248ZM143.113 34.5631C143.113 33.3329 143.916 32.3248 145.234 32.3248C146.494 32.3248 147.341 33.292 147.341 34.5631C147.341 35.8342 146.494 36.8014 145.234 36.8014C143.916 36.8014 143.113 35.7904 143.113 34.5631ZM91.7134 34.5631V31.0566H90.191V31.9069C89.9314 31.5748 89.5964 31.3094 89.2138 31.1325C88.8311 30.9557 88.4119 30.8726 87.9907 30.89C86.03 30.89 84.4842 32.4271 84.4842 34.5631C84.4842 36.6991 86.0212 38.2362 87.9907 38.2362C88.4141 38.254 88.8356 38.1702 89.2199 37.9918C89.6042 37.8133 89.9402 37.5454 90.1998 37.2105V38.0579H91.7222L91.7134 34.5631ZM86.0505 34.5631C86.0505 33.3329 86.854 32.3248 88.1719 32.3248C89.4313 32.3248 90.2787 33.292 90.2787 34.5631C90.2787 35.8342 89.4313 36.8014 88.1719 36.8014C86.854 36.8014 86.0505 35.7933 86.0505 34.5631Z" fill="white"/>
<path d="M52.6218 26.2468H43.4172V42.7887H52.6218V26.2468Z" fill="#FF5F00"/>
<path d="M44.0017 34.5214C44.0005 32.9286 44.3615 31.3564 45.0576 29.9237C45.7537 28.491 46.7666 27.2354 48.0196 26.252C46.4677 25.0324 44.604 24.2739 42.6415 24.0634C40.679 23.8529 38.6968 24.1988 36.9215 25.0615C35.1463 25.9242 33.6496 27.269 32.6024 28.9421C31.5553 30.6152 31 32.5491 31 34.5229C31 36.4967 31.5553 38.4306 32.6024 40.1038C33.6496 41.7769 35.1463 43.1216 36.9215 43.9843C38.6968 44.847 40.679 45.1929 42.6415 44.9824C44.604 44.7719 46.4677 44.0135 48.0196 42.7939C46.7662 41.8101 45.7531 40.5541 45.057 39.1208C44.3609 37.6876 44 36.1148 44.0017 34.5214Z" fill="#EB001B"/>
<path d="M65.0406 34.5222C65.0406 36.4961 64.4852 38.4302 63.4378 40.1033C62.3905 41.7765 60.8936 43.1212 59.1181 43.9838C57.3426 44.8464 55.3603 45.1921 53.3976 44.9812C51.435 44.7704 49.5713 44.0116 48.0195 42.7917C49.272 41.8073 50.2846 40.5514 50.9809 39.1186C51.6771 37.6859 52.0389 36.1137 52.0389 34.5207C52.0389 32.9277 51.6771 31.3555 50.9809 29.9228C50.2846 28.49 49.272 27.2341 48.0195 26.2498C49.5715 25.0296 51.4355 24.2708 53.3984 24.0601C55.3613 23.8494 57.3438 24.1953 59.1194 25.0582C60.895 25.9212 62.3919 27.2663 63.439 28.9399C64.4861 30.6135 65.0411 32.548 65.0406 34.5222Z" fill="#F79E1B"/>
<path d="M64.0296 41.0355V40.6965H64.167V40.6293H63.8251V40.6995H63.9624V41.0384L64.0296 41.0355ZM64.7046 41.0355V40.6264H64.614L64.4913 40.9186L64.3686 40.6264H64.2605V41.0355H64.3218V40.7287L64.4358 40.9946H64.5147L64.6286 40.7287V41.0384L64.7046 41.0355Z" fill="#F79E1B"/>
<path opacity="0.7" d="M242 184C242 173.507 250.507 165 261 165H315C325.493 165 334 173.507 334 184C334 194.493 325.493 203 315 203H261C250.507 203 242 194.493 242 184Z" fill="white"/>
<path d="M276.08 183.375C276.08 181.178 277.032 179.94 278.739 179.94C280.145 179.94 281.112 180.855 281.148 182.188H282.408V182.167C282.408 180.204 280.863 178.79 278.731 178.79C276.256 178.79 274.806 180.504 274.806 183.375V184.686C274.806 187.528 276.256 189.212 278.731 189.212C280.848 189.212 282.408 187.857 282.408 186.012V185.982H281.148C281.112 187.22 280.145 188.062 278.739 188.062C277.032 188.062 276.08 186.847 276.08 184.686V183.375ZM288.18 189L291.783 179.002H290.333L287.557 187.352H287.513L284.723 179.002H283.265L286.861 189H288.18ZM297.218 189L300.821 179.002H299.371L296.595 187.352H296.551L293.761 179.002H292.303L295.899 189H297.218Z" fill="#4E5055"/>
<g opacity="0.4">
<path fill-rule="evenodd" clip-rule="evenodd" d="M217.185 181H217.423C218.48 181 219.326 181.853 219.326 182.92V189.053C219.326 190.12 218.454 190.973 217.423 190.973H208.12C207.063 190.973 206.218 190.093 206.218 189.053V182.92C206.218 181.853 207.09 181 208.12 181H208.358V179.72C208.358 177.267 210.34 175.267 212.772 175.267C215.203 175.267 217.185 177.267 217.185 179.72V181ZM212.772 176.093C210.763 176.093 209.151 177.747 209.151 179.747V181.027H216.392V179.747C216.392 177.72 214.78 176.093 212.772 176.093ZM211.794 185.667C211.794 185.133 212.217 184.68 212.772 184.68C213.327 184.68 213.75 185.107 213.776 185.667C213.776 186.093 213.512 186.467 213.142 186.6V188.467H212.428V186.6C212.058 186.44 211.794 186.093 211.794 185.667Z" fill="white"/>
</g>
</svg>
