<svg width="20" height="21" viewBox="0 0 20 21" fill="none" xmlns="http://www.w3.org/2000/svg">
<path d="M2.5 10.5833L4.16667 8.91665M4.16667 8.91665L10 3.08331L15.8333 8.91665M4.16667 8.91665V17.25C4.16667 17.471 4.25446 17.683 4.41074 17.8392C4.56702 17.9955 4.77899 18.0833 5 18.0833H7.5M15.8333 8.91665L17.5 10.5833M15.8333 8.91665V17.25C15.8333 17.471 15.7455 17.683 15.5893 17.8392C15.433 17.9955 15.221 18.0833 15 18.0833H12.5M7.5 18.0833C7.72101 18.0833 7.93298 17.9955 8.08926 17.8392C8.24554 17.683 8.33333 17.471 8.33333 17.25V13.9166C8.33333 13.6956 8.42113 13.4837 8.57741 13.3274C8.73369 13.1711 8.94565 13.0833 9.16667 13.0833H10.8333C11.0543 13.0833 11.2663 13.1711 11.4226 13.3274C11.5789 13.4837 11.6667 13.6956 11.6667 13.9166V17.25C11.6667 17.471 11.7545 17.683 11.9107 17.8392C12.067 17.9955 12.279 18.0833 12.5 18.0833M7.5 18.0833H12.5" stroke="#47494E" stroke-linecap="round" stroke-linejoin="round"/>
</svg>
