<svg width="20" height="21" viewBox="0 0 20 21" fill="none" xmlns="http://www.w3.org/2000/svg">
<path d="M8.33333 5.58331H4.16667C3.72464 5.58331 3.30072 5.7589 2.98816 6.07146C2.67559 6.38403 2.5 6.80795 2.5 7.24998V14.75C2.5 15.192 2.67559 15.6159 2.98816 15.9285C3.30072 16.241 3.72464 16.4166 4.16667 16.4166H15.8333C16.2754 16.4166 16.6993 16.241 17.0118 15.9285C17.3244 15.6159 17.5 15.192 17.5 14.75V7.24998C17.5 6.80795 17.3244 6.38403 17.0118 6.07146C16.6993 5.7589 16.2754 5.58331 15.8333 5.58331H11.6667M8.33333 5.58331V4.74998C8.33333 4.30795 8.50893 3.88403 8.82149 3.57146C9.13405 3.2589 9.55797 3.08331 10 3.08331C10.442 3.08331 10.866 3.2589 11.1785 3.57146C11.4911 3.88403 11.6667 4.30795 11.6667 4.74998V5.58331M8.33333 5.58331C8.33333 6.02534 8.50893 6.44926 8.82149 6.76182C9.13405 7.07438 9.55797 7.24998 10 7.24998C10.442 7.24998 10.866 7.07438 11.1785 6.76182C11.4911 6.44926 11.6667 6.02534 11.6667 5.58331M7.5 12.25C7.94203 12.25 8.36595 12.0744 8.67851 11.7618C8.99107 11.4493 9.16667 11.0253 9.16667 10.5833C9.16667 10.1413 8.99107 9.71736 8.67851 9.4048C8.36595 9.09224 7.94203 8.91664 7.5 8.91664C7.05797 8.91664 6.63405 9.09224 6.32149 9.4048C6.00893 9.71736 5.83333 10.1413 5.83333 10.5833C5.83333 11.0253 6.00893 11.4493 6.32149 11.7618C6.63405 12.0744 7.05797 12.25 7.5 12.25ZM7.5 12.25C8.58833 12.25 9.51417 12.9458 9.85833 13.9166M7.5 12.25C6.98282 12.2498 6.47831 12.41 6.05596 12.7085C5.6336 13.007 5.31418 13.4291 5.14167 13.9166M12.5 9.74998H15M12.5 13.0833H14.1667" stroke="#47494E" stroke-linecap="round" stroke-linejoin="round"/>
</svg>
