<svg width="70" height="70" viewBox="0 0 70 70" fill="none" xmlns="http://www.w3.org/2000/svg">
<path d="M59.2518 45.0454C60.571 41.8606 61.25 38.4472 61.25 35C61.25 28.0381 58.4844 21.3613 53.5616 16.4384C48.6387 11.5156 41.9619 8.75 35 8.75C28.0381 8.75 21.3613 11.5156 16.4384 16.4384C11.5156 21.3613 8.75 28.0381 8.75 35C8.75 38.4472 9.42898 41.8606 10.7482 45.0454C12.0673 48.2302 14.0009 51.124 16.4384 53.5616C18.876 55.9991 21.7698 57.9327 24.9546 59.2518C28.1394 60.571 31.5528 61.25 35 61.25C38.4472 61.25 41.8606 60.571 45.0454 59.2518C48.2302 57.9327 51.124 55.9991 53.5616 53.5616C55.9991 51.124 57.9327 48.2302 59.2518 45.0454Z" fill="#66917C"/>
<path d="M33.75 40L28.75 35M28.75 35L33.75 30M28.75 35H46.25M40 40V41.25C40 42.2446 39.6049 43.1984 38.9017 43.9017C38.1984 44.6049 37.2446 45 36.25 45H27.5C26.5054 45 25.5516 44.6049 24.8483 43.9017C24.1451 43.1984 23.75 42.2446 23.75 41.25V28.75C23.75 27.7554 24.1451 26.8016 24.8483 26.0983C25.5516 25.3951 26.5054 25 27.5 25H36.25C37.2446 25 38.1984 25.3951 38.9017 26.0983C39.6049 26.8016 40 27.7554 40 28.75V30" stroke="white" stroke-width="2" stroke-linecap="round" stroke-linejoin="round"/>
</svg>
