<svg width="17" height="17" viewBox="0 0 17 17" fill="none" xmlns="http://www.w3.org/2000/svg">
<path d="M1.48816 1.07147C1.17559 1.38403 1 1.80795 1 2.24998V3.08331C1 9.98665 6.59667 15.5833 13.5 15.5833H14.3333C14.7754 15.5833 15.1993 15.4077 15.5118 15.0952C15.8244 14.7826 16 14.3587 16 13.9166V11.1841C16 11.0092 15.945 10.8386 15.8427 10.6967C15.7404 10.5547 15.596 10.4486 15.43 10.3933L11.6858 9.14498C11.4956 9.08173 11.2888 9.08921 11.1036 9.16605C10.9184 9.24289 10.7671 9.38394 10.6775 9.56331L9.73583 11.4441C7.69538 10.5222 6.0611 8.88793 5.13917 6.84748L7.02 5.90581C7.19938 5.81619 7.34042 5.6649 7.41726 5.47968C7.4941 5.29447 7.50158 5.08776 7.43833 4.89748L6.19 1.15331C6.13475 0.987443 6.02874 0.843149 5.88696 0.740855C5.74519 0.63856 5.57483 0.583446 5.4 0.583313H2.66667C2.22464 0.583313 1.80072 0.758908 1.48816 1.07147Z" stroke="#47494E" stroke-linecap="round" stroke-linejoin="round"/>
</svg>
