<svg width="70" height="70" viewBox="0 0 70 70" fill="none" xmlns="http://www.w3.org/2000/svg">
<path d="M59.2518 45.0454C60.571 41.8606 61.25 38.4472 61.25 35C61.25 28.0381 58.4844 21.3613 53.5616 16.4384C48.6387 11.5156 41.9619 8.75 35 8.75C28.0381 8.75 21.3613 11.5156 16.4384 16.4384C11.5156 21.3613 8.75 28.0381 8.75 35C8.75 38.4472 9.42898 41.8606 10.7482 45.0454C12.0673 48.2302 14.0009 51.124 16.4384 53.5616C18.876 55.9991 21.7698 57.9327 24.9546 59.2518C28.1394 60.571 31.5528 61.25 35 61.25C38.4472 61.25 41.8606 60.571 45.0454 59.2518C48.2302 57.9327 51.124 55.9991 53.5616 53.5616C55.9991 51.124 57.9327 48.2302 59.2518 45.0454Z" fill="#E85566"/>
<path d="M32.5 33.75V41.25M37.5 33.75V41.25M25 28.75H45M43.75 28.75L42.6662 43.9275C42.6214 44.5582 42.3391 45.1485 41.8764 45.5795C41.4137 46.0104 40.8048 46.25 40.1725 46.25H29.8275C29.1952 46.25 28.5863 46.0104 28.1236 45.5795C27.6609 45.1485 27.3786 44.5582 27.3338 43.9275L26.25 28.75H43.75ZM38.75 28.75V25C38.75 24.6685 38.6183 24.3505 38.3839 24.1161C38.1495 23.8817 37.8315 23.75 37.5 23.75H32.5C32.1685 23.75 31.8505 23.8817 31.6161 24.1161C31.3817 24.3505 31.25 24.6685 31.25 25V28.75H38.75Z" stroke="white" stroke-width="2" stroke-linecap="round" stroke-linejoin="round"/>
</svg>
