<svg width="70" height="70" viewBox="0 0 70 70" fill="none" xmlns="http://www.w3.org/2000/svg">
<path d="M59.2518 45.0454C60.571 41.8606 61.25 38.4472 61.25 35C61.25 28.0381 58.4844 21.3613 53.5616 16.4384C48.6387 11.5156 41.9619 8.75 35 8.75C28.0381 8.75 21.3613 11.5156 16.4384 16.4384C11.5156 21.3613 8.75 28.0381 8.75 35C8.75 38.4472 9.42898 41.8606 10.7482 45.0454C12.0673 48.2302 14.0009 51.124 16.4384 53.5616C18.876 55.9991 21.7698 57.9327 24.9546 59.2518C28.1394 60.571 31.5528 61.25 35 61.25C38.4472 61.25 41.8606 60.571 45.0454 59.2518C48.2302 57.9327 51.124 55.9991 53.5616 53.5616C55.9991 51.124 57.9327 48.2302 59.2518 45.0454Z" fill="#FC8E80" fill-opacity="0.88"/>
<path d="M38.5355 32.2855C39.4732 31.3479 40 30.0761 40 28.75C40 27.4239 39.4732 26.1521 38.5355 25.2145C37.5979 24.2768 36.3261 23.75 35 23.75C33.6739 23.75 32.4021 24.2768 31.4645 25.2145C30.5268 26.1521 30 27.4239 30 28.75C30 30.0761 30.5268 31.3479 31.4645 32.2855C32.4021 33.2232 33.6739 33.75 35 33.75C36.3261 33.75 37.5979 33.2232 38.5355 32.2855Z" stroke="white" stroke-width="2" stroke-linecap="round" stroke-linejoin="round"/>
<path d="M28.8128 40.0628C30.4538 38.4219 32.6794 37.5 35 37.5C37.3206 37.5 39.5462 38.4219 41.1872 40.0628C42.8281 41.7038 43.75 43.9294 43.75 46.25H26.25C26.25 43.9294 27.1719 41.7038 28.8128 40.0628Z" stroke="white" stroke-width="2" stroke-linecap="round" stroke-linejoin="round"/>
</svg>
