<svg width="38" height="13" viewBox="0 0 38 13" fill="none" xmlns="http://www.w3.org/2000/svg">
<path d="M19.1703 4.82662C19.1331 6.49845 20.6563 7.42724 21.808 7.98452C22.9597 8.5418 23.3684 8.91331 23.3684 9.43344C23.3684 10.2136 22.4396 10.548 21.5851 10.5851C20.0619 10.6223 19.2074 10.1765 18.5015 9.8421L17.9443 12.3684C18.6502 12.7028 19.9505 12.9628 21.2879 13C24.4458 13 26.4892 11.4396 26.5263 9.02477C26.5263 5.97833 22.291 5.79257 22.3282 4.41796C22.3282 4.00929 22.7368 3.56347 23.5913 3.45201C24.0372 3.37771 25.1889 3.34056 26.5635 3.97214L27.0836 1.52012C26.3777 1.26006 25.4489 1 24.2601 1C21.2879 1 19.2074 2.56037 19.1703 4.82662ZM32.1362 1.18576C31.579 1.18576 31.0588 1.52012 30.8731 2.04025L26.3406 12.7771H29.4985L30.13 11.031H33.9938L34.3653 12.7771H37.1517L34.7368 1.18576H32.1362ZM32.582 4.34365L33.4737 8.6904H30.9845L32.582 4.34365ZM15.3808 1.18576L12.8916 12.7771H15.9009L18.3901 1.18576H15.3808ZM10.9226 1.18576L7.80186 9.06192L6.5387 2.37461C6.3901 1.63158 5.79566 1.18576 5.16408 1.18576H0.0742966L0 1.52012C1.04025 1.74303 2.2291 2.11455 2.97214 2.52322C3.41796 2.74613 3.52941 2.96904 3.67802 3.52631L6.05572 12.7771H9.21362L14.0805 1.18576H10.9226Z" fill="#111059"/>
</svg>
