<svg width="20" height="21" viewBox="0 0 20 21" fill="none" xmlns="http://www.w3.org/2000/svg">
<path d="M13.3333 10.5833C13.3333 9.69926 12.9821 8.85142 12.357 8.22629C11.7319 7.60117 10.8841 7.24998 10 7.24998C9.11595 7.24998 8.2681 7.60117 7.64298 8.22629C7.01786 8.85142 6.66667 9.69926 6.66667 10.5833C6.66667 11.4674 7.01786 12.3152 7.64298 12.9403C8.2681 13.5655 9.11595 13.9167 10 13.9167C10.8841 13.9167 11.7319 13.5655 12.357 12.9403C12.9821 12.3152 13.3333 11.4674 13.3333 10.5833ZM13.3333 10.5833V11.8333C13.3333 12.3859 13.5528 12.9158 13.9435 13.3065C14.3342 13.6972 14.8641 13.9167 15.4167 13.9167C15.9692 13.9167 16.4991 13.6972 16.8898 13.3065C17.2805 12.9158 17.5 12.3859 17.5 11.8333V10.5833C17.5 9.09996 17.0601 7.64991 16.236 6.41654C15.4119 5.18317 14.2406 4.22188 12.8701 3.65422C11.4997 3.08656 9.99168 2.93804 8.53683 3.22743C7.08197 3.51682 5.7456 4.23112 4.6967 5.28002C3.64781 6.32891 2.9335 7.66528 2.64411 9.12014C2.35472 10.575 2.50325 12.083 3.07091 13.4534C3.63856 14.8239 4.59986 15.9952 5.83323 16.8193C7.0666 17.6435 8.51664 18.0833 10 18.0833C11.3168 18.0846 12.6106 17.7384 13.75 17.0783" stroke="#47494E" stroke-linecap="round" stroke-linejoin="round"/>
</svg>
